<?xml version="1.0" encoding="windows-1252" standalone="no"?>
<svg xmlns="http://www.w3.org/2000/svg" xmlns:xlink="http://www.w3.org/1999/xlink" contentStyleType="text/css" height="414px" preserveAspectRatio="none" style="width:957px;height:414px;background:#1B1B1B;" version="1.1" viewBox="0 0 957 414" width="957px" zoomAndPan="magnify"><defs/><g><rect fill="#1B1B1B" height="414" style="stroke:none;stroke-width:1.0;" width="957" x="0" y="0"/><!--cluster sistema asistencia--><g id="cluster_sistema asistencia"><rect fill="none" height="401" rx="2.5" ry="2.5" style="stroke:#E7E7E7;stroke-width:1.0;" width="944" x="7" y="7"/><text fill="#FFFFFF" font-family="sans-serif" font-size="14" font-weight="bold" lengthAdjust="spacing" textLength="154" x="402" y="21.9951">sistema asistencia</text></g><!--entity profesor--><g id="elem_profesor"><ellipse cx="120.5" cy="50.5" fill="#313139" rx="8" ry="8" style="stroke:#E7E7E7;stroke-width:0.5;"/><path d="M120.5,58.5 L120.5,85.5 M107.5,66.5 L133.5,66.5 M120.5,85.5 L107.5,100.5 M120.5,85.5 L133.5,100.5 " fill="none" style="stroke:#E7E7E7;stroke-width:0.5;"/><text fill="#FFFFFF" font-family="sans-serif" font-size="14" lengthAdjust="spacing" textLength="62" x="89.5" y="114.9951">profesor</text></g><g id="elem_cu_gestion_asistencia"><ellipse cx="493.4263" cy="95.7853" fill="#313139" rx="84.4263" ry="19.2853" style="stroke:#E7E7E7;stroke-width:0.5;"/><text fill="#FFFFFF" font-family="sans-serif" font-size="14" lengthAdjust="spacing" textLength="129" x="428.805" y="98.6739">gestion asistencia</text></g><g id="elem_cu_autenticar"><ellipse cx="852.3925" cy="234.0785" fill="#313139" rx="63.3925" ry="15.0785" style="stroke:#E7E7E7;stroke-width:0.5;"/><text fill="#FFFFFF" font-family="sans-serif" font-size="14" lengthAdjust="spacing" textLength="74" x="812.3925" y="237.8261">autenticar</text></g><g id="elem_cu_horario"><ellipse cx="852.7353" cy="146.8471" fill="#313139" rx="64.7353" ry="15.3471" style="stroke:#E7E7E7;stroke-width:0.5;"/><text fill="#FFFFFF" font-family="sans-serif" font-size="14" lengthAdjust="spacing" textLength="78" x="810.7353" y="150.5946">ver horario</text></g><g id="elem_cu_descargar_horario"><ellipse cx="852.712" cy="60.9424" fill="#313139" rx="82.712" ry="18.9424" style="stroke:#E7E7E7;stroke-width:0.5;"/><text fill="#FFFFFF" font-family="sans-serif" font-size="14" lengthAdjust="spacing" textLength="125" x="789.5208" y="64.0215">descargar horario</text></g><g id="elem_cu_asignatura"><ellipse cx="120.711" cy="226.9422" fill="#313139" rx="97.711" ry="21.9422" style="stroke:#E7E7E7;stroke-width:0.5;"/><text fill="#FFFFFF" font-family="sans-serif" font-size="14" lengthAdjust="spacing" textLength="159" x="41.211" y="229.7889">seleccionar asignatura</text></g><g id="elem_cu_cerrar"><ellipse cx="493.2839" cy="356.8568" fill="#313139" rx="79.7839" ry="18.3568" style="stroke:#E7E7E7;stroke-width:0.5;"/><text fill="#FFFFFF" font-family="sans-serif" font-size="14" lengthAdjust="spacing" textLength="118" x="432.5356" y="360.2613">cerrar asistencia</text></g><g id="elem_cu_libro"><ellipse cx="493.5271" cy="270.1054" fill="#313139" rx="81.0271" ry="18.6054" style="stroke:#E7E7E7;stroke-width:0.5;"/><text fill="#FFFFFF" font-family="sans-serif" font-size="14" lengthAdjust="spacing" textLength="121" x="431.7415" y="273.3718">crear libro clases</text></g><g id="elem_cu_grabar"><ellipse cx="493.4455" cy="183.1891" fill="#313139" rx="81.4455" ry="18.6891" style="stroke:#E7E7E7;stroke-width:0.5;"/><text fill="#FFFFFF" font-family="sans-serif" font-size="14" lengthAdjust="spacing" textLength="122" x="431.3109" y="186.409">grabar asistencia</text></g><!--link profesor to cu_gestion_asistencia--><g id="link_profesor_cu_gestion_asistencia"><path d="M151.598,76.411 C195.042,71.775 277.815,64.973 348,71 C375.269,73.341 399.2183,77.0218 424.6703,81.7828 " fill="none" id="profesor-to-cu_gestion_asistencia" style="stroke:#E7E7E7;stroke-width:1.0;"/><polygon fill="#E7E7E7" points="430.568,82.886,422.4569,77.2994,425.6532,81.9667,420.986,85.163,430.568,82.886" style="stroke:#E7E7E7;stroke-width:1.0;"/></g><!--reverse link cu_gestion_asistencia to cu_autenticar--><g id="link_cu_gestion_asistencia_cu_autenticar"><path d="M543.083,114.8485 C571.818,125.9925 604.872,138.802 639,152 C702.437,176.532 776.557,205.115 818.367,221.232 " fill="none" id="cu_gestion_asistencia-backto-cu_autenticar" style="stroke:#E7E7E7;stroke-width:1.0;"/><polygon fill="#E7E7E7" points="537.489,112.679,544.4337,119.6626,542.1507,114.4869,547.3264,112.2039,537.489,112.679" style="stroke:#E7E7E7;stroke-width:1.0;"/><text fill="#FFFFFF" font-family="sans-serif" font-size="13" lengthAdjust="spacing" textLength="61" x="643.5" y="148.0669">쳃nclude</text></g><!--reverse link cu_gestion_asistencia to cu_horario--><g id="link_cu_gestion_asistencia_cu_horario"><path d="M571.8257,107.0465 C639.7887,116.7555 734.685,130.312 796.583,139.155 " fill="none" id="cu_gestion_asistencia-backto-cu_horario" style="stroke:#E7E7E7;stroke-width:1.0;stroke-dasharray:7.0,7.0;"/><polygon fill="#E7E7E7" points="565.886,106.198,574.2299,111.4306,570.8357,106.9051,575.3612,103.511,565.886,106.198" style="stroke:#E7E7E7;stroke-width:1.0;"/><text fill="#FFFFFF" font-family="sans-serif" font-size="13" lengthAdjust="spacing" textLength="68" x="640" y="113.0669">첿xtends</text></g><!--reverse link cu_gestion_asistencia to cu_descargar_horario--><g id="link_cu_gestion_asistencia_cu_descargar_horario"><path d="M577.4954,87.8635 C638.0664,81.9245 716.009,74.283 776.145,68.388 " fill="none" id="cu_gestion_asistencia-backto-cu_descargar_horario" style="stroke:#E7E7E7;stroke-width:1.0;stroke-dasharray:7.0,7.0;"/><polygon fill="#E7E7E7" points="571.524,88.449,580.8714,91.5517,576.5001,87.9611,580.0907,83.5898,571.524,88.449" style="stroke:#E7E7E7;stroke-width:1.0;"/><text fill="#FFFFFF" font-family="sans-serif" font-size="13" lengthAdjust="spacing" textLength="68" x="640" y="72.0669">첿xtends</text></g><!--link cu_asignatura to cu_gestion_asistencia--><g id="link_cu_asignatura_cu_gestion_asistencia"><path d="M173.868,208.509 C246.673,182.801 371.6483,138.6727 440.8723,114.2297 " fill="none" id="cu_asignatura-to-cu_gestion_asistencia" style="stroke:#E7E7E7;stroke-width:1.0;stroke-dasharray:7.0,7.0;"/><polygon fill="#E7E7E7" points="446.53,112.232,436.7117,111.4568,441.8153,113.8968,439.3753,119.0004,446.53,112.232" style="stroke:#E7E7E7;stroke-width:1.0;"/><text fill="#FFFFFF" font-family="sans-serif" font-size="13" lengthAdjust="spacing" textLength="67" x="280" y="144.0669">첿stends</text></g><!--reverse link cu_asignatura to cu_cerrar--><g id="link_cu_asignatura_cu_cerrar"><path d="M179.9234,247.4721 C253.5424,273.2681 380.075,317.606 448.611,341.6209 " fill="none" id="cu_asignatura-backto-cu_cerrar" style="stroke:#E7E7E7;stroke-width:1.0;"/><polygon fill="#E7E7E7" points="174.261,245.488,181.4319,252.2391,178.9797,247.1414,184.0774,244.6892,174.261,245.488" style="stroke:#E7E7E7;stroke-width:1.0;"/><text fill="#FFFFFF" font-family="sans-serif" font-size="13" lengthAdjust="spacing" textLength="61" x="283" y="279.0669">쳃nclude</text></g><!--link cu_asignatura to cu_libro--><g id="link_cu_asignatura_cu_libro"><path d="M207.547,236.973 C272.3,244.478 354.0459,253.9532 414.9799,261.0152 " fill="none" id="cu_asignatura-to-cu_libro" style="stroke:#E7E7E7;stroke-width:1.0;stroke-dasharray:7.0,7.0;"/><polygon fill="#E7E7E7" points="420.94,261.706,412.4603,256.6965,415.9732,261.1304,411.5393,264.6433,420.94,261.706" style="stroke:#E7E7E7;stroke-width:1.0;"/><text fill="#FFFFFF" font-family="sans-serif" font-size="13" lengthAdjust="spacing" textLength="67" x="280" y="242.0669">첿stends</text></g><!--link cu_asignatura to cu_grabar--><g id="link_cu_asignatura_cu_grabar"><path d="M207.081,216.85 C271.814,209.173 353.7288,199.4576 414.8018,192.2146 " fill="none" id="cu_asignatura-to-cu_grabar" style="stroke:#E7E7E7;stroke-width:1.0;stroke-dasharray:7.0,7.0;"/><polygon fill="#E7E7E7" points="420.76,191.508,411.3516,188.5958,415.7948,192.0969,412.2937,196.5401,420.76,191.508" style="stroke:#E7E7E7;stroke-width:1.0;"/><text fill="#FFFFFF" font-family="sans-serif" font-size="13" lengthAdjust="spacing" textLength="67" x="280" y="197.0669">첿stends</text></g><!--SRC=[XP1BRiCm34JtF0MHbRgm3r0Olah0o8mZGBKAIYuA5BrxwO-YndRQ7SLvGv7Z-Pem1HJNtn9sJjWc5mQ0gQ2Xzuodw6BYDqAQYy4wEdq1sHG4toLSEGO1qtESZB-W5wtHZkTLEHS538rQ9MT9CbKwO3vOy1Q4n8Kihqym7KTbUjeHTw6maJrRgtyhhR_t0wLHxdkL3XZB8WkqMNuH511MtRkB1BIU8iTCp3szN-XoE64H021dXLLLjK-2EUmsQdX8wBLft63zs77RFh7KTLrIKvu_LUZYF_mkmwspP8RgQ0zdJPvux5alMKBTNh6VFKVxnxYymfpm0_Vz0m00]--></g></svg>