<?xml version="1.0" encoding="us-ascii" standalone="no"?><svg xmlns="http://www.w3.org/2000/svg" xmlns:xlink="http://www.w3.org/1999/xlink" contentStyleType="text/css" height="647px" preserveAspectRatio="none" style="width:720px;height:647px;background:#1B1B1B;" version="1.1" viewBox="0 0 720 647" width="720px" zoomAndPan="magnify"><defs/><g><rect fill="#1B1B1B" height="647" style="stroke:none;stroke-width:1.0;" width="720" x="0" y="0"/><!--cluster CajeroAutomatico--><g id="cluster_CajeroAutomatico"><rect fill="none" height="634" rx="2.5" ry="2.5" style="stroke:#E7E7E7;stroke-width:1.0;" width="707" x="7" y="7"/><text fill="#FFFFFF" font-family="sans-serif" font-size="14" font-weight="bold" lengthAdjust="spacing" textLength="147" x="287" y="21.9951">CajeroAutomatico</text></g><g id="elem_M1"><ellipse cx="394.0368" cy="429.8074" fill="#313139" rx="87.0368" ry="19.8074" style="stroke:#E7E7E7;stroke-width:0.5;"/><text fill="#FFFFFF" font-family="sans-serif" font-size="14" lengthAdjust="spacing" textLength="135" x="326.5368" y="432.654">Realizar Operacion</text></g><g id="elem_M2"><ellipse cx="101.1551" cy="607.031" fill="#313139" rx="78.1551" ry="18.031" style="stroke:#E7E7E7;stroke-width:0.5;"/><text fill="#FFFFFF" font-family="sans-serif" font-size="14" lengthAdjust="spacing" textLength="114" x="41.7659" y="610.6166">Retirar Efectivo</text></g><g id="elem_M3"><ellipse cx="273.8197" cy="606.7671" fill="#313139" rx="59.3197" ry="14.7671" style="stroke:#E7E7E7;stroke-width:0.5;"/><text fill="#FFFFFF" font-family="sans-serif" font-size="14" lengthAdjust="spacing" textLength="66" x="237.8197" y="610.5147">Deposito</text></g><g id="elem_M4"><ellipse cx="440.9293" cy="606.7859" fill="#313139" rx="71.9293" ry="16.7859" style="stroke:#E7E7E7;stroke-width:0.5;"/><text fill="#FFFFFF" font-family="sans-serif" font-size="14" lengthAdjust="spacing" textLength="98" x="388.9293" y="610.5334">Transferencia</text></g><g id="elem_M5"><ellipse cx="623.1066" cy="606.8213" fill="#313139" rx="74.6066" ry="17.3213" style="stroke:#E7E7E7;stroke-width:0.5;"/><text fill="#FFFFFF" font-family="sans-serif" font-size="14" lengthAdjust="spacing" textLength="105" x="567.6066" y="610.5689">Consulta Saldo</text></g><g id="elem_M6"><ellipse cx="103.9563" cy="248.7913" fill="#313139" rx="76.9563" ry="17.7913" style="stroke:#E7E7E7;stroke-width:0.5;"/><text fill="#FFFFFF" font-family="sans-serif" font-size="14" lengthAdjust="spacing" textLength="111" x="45.5675" y="252.5101">Insertar Tarjeta</text></g><g id="elem_M7"><ellipse cx="292.0594" cy="57.2119" fill="#313139" rx="64.0594" ry="15.2119" style="stroke:#E7E7E7;stroke-width:0.5;"/><text fill="#FFFFFF" font-family="sans-serif" font-size="14" lengthAdjust="spacing" textLength="76" x="251.0594" y="60.9594">Autenticar</text></g><g id="elem_M8"><ellipse cx="393.9431" cy="249.1886" fill="#313139" rx="91.4431" ry="20.6886" style="stroke:#E7E7E7;stroke-width:0.5;"/><text fill="#FFFFFF" font-family="sans-serif" font-size="14" lengthAdjust="spacing" textLength="141" x="321.4431" y="252.0353">Validacion de Datos</text></g><!--entity Usuario--><g id="elem_Usuario"><ellipse cx="242" cy="219.5" fill="#313139" rx="8" ry="8" style="stroke:#E7E7E7;stroke-width:0.5;"/><path d="M242,227.5 L242,254.5 M229,235.5 L255,235.5 M242,254.5 L229,269.5 M242,254.5 L255,269.5 " fill="none" style="stroke:#E7E7E7;stroke-width:0.5;"/><text fill="#FFFFFF" font-family="sans-serif" font-size="14" lengthAdjust="spacing" textLength="51" x="216.5" y="283.9951">Usuario</text></g><!--link Usuario to M6--><g id="link_Usuario_M6"><path d="M216.302,249 C204.563,249 198.825,249 187.086,249 " fill="none" id="Usuario-to-M6" style="stroke:#E7E7E7;stroke-width:1.0;"/><polygon fill="#E7E7E7" points="181.086,249,190.086,253,186.086,249,190.086,245,181.086,249" style="stroke:#E7E7E7;stroke-width:1.0;"/></g><!--link M8 to M1--><g id="link_M8_M1"><path d="M394,269.84 C394,304.521 394,369.721 394,403.885 " fill="none" id="M8-to-M1" style="stroke:#E7E7E7;stroke-width:1.0;"/><polygon fill="#E7E7E7" points="394,409.885,398,400.885,394,404.885,390,400.885,394,409.885" style="stroke:#E7E7E7;stroke-width:1.0;"/></g><!--link M7 to M6--><g id="link_M7_M6"><path d="M274.2598,75.929 C240.5818,109.965 161.4722,189.917 124.7802,226.999 " fill="none" id="M7-M6" style="stroke:#E7E7E7;stroke-width:1.0;stroke-dasharray:7.0,7.0;"/><polygon fill="#E7E7E7" points="278.48,71.664,269.3064,75.2481,274.9632,75.2182,274.9931,80.875,278.48,71.664" style="stroke:#E7E7E7;stroke-width:1.0;"/><polygon fill="#E7E7E7" points="120.56,231.264,129.7336,227.6799,124.0768,227.7098,124.0469,222.0531,120.56,231.264" style="stroke:#E7E7E7;stroke-width:1.0;"/><text fill="#FFFFFF" font-family="sans-serif" font-size="13" lengthAdjust="spacing" textLength="45" x="218" y="146.0669">include</text></g><!--link M7 to M8--><g id="link_M7_M8"><path d="M302.338,77.2574 C320.281,110.6804 360.0429,184.7477 380.6789,223.1857 " fill="none" id="M7-M8" style="stroke:#E7E7E7;stroke-width:1.0;stroke-dasharray:7.0,7.0;"/><polygon fill="#E7E7E7" points="299.5,71.971,300.2327,81.7926,301.865,76.3763,307.2812,78.0086,299.5,71.971" style="stroke:#E7E7E7;stroke-width:1.0;"/><polygon fill="#E7E7E7" points="383.517,228.472,382.7842,218.6504,381.152,224.0667,375.7357,222.4345,383.517,228.472" style="stroke:#E7E7E7;stroke-width:1.0;"/><text fill="#FFFFFF" font-family="sans-serif" font-size="13" lengthAdjust="spacing" textLength="45" x="342" y="146.0669">include</text></g><!--link M1 to M2--><g id="link_M1_M2"><path d="M364.021,448.906 C306.701,483.141 187.5622,554.2993 132.8822,586.9576 " fill="none" id="M1-to-M2" style="stroke:#E7E7E7;stroke-width:1.0;stroke-dasharray:7.0,7.0;"/><polygon fill="#E7E7E7" points="127.731,590.0342,137.5088,588.8534,132.0236,587.4704,133.4067,581.9852,127.731,590.0342" style="stroke:#E7E7E7;stroke-width:1.0;"/><text fill="#FFFFFF" font-family="sans-serif" font-size="13" lengthAdjust="spacing" textLength="52" x="260" y="524.0669">extends</text></g><!--link M1 to M3--><g id="link_M1_M3"><path d="M380.929,450.061 C356.632,485.496 308.4282,555.7929 287.0172,587.0172 " fill="none" id="M1-to-M3" style="stroke:#E7E7E7;stroke-width:1.0;stroke-dasharray:7.0,7.0;"/><polygon fill="#E7E7E7" points="283.624,591.9656,292.0127,586.8052,286.4516,587.842,285.4149,582.2809,283.624,591.9656" style="stroke:#E7E7E7;stroke-width:1.0;"/><text fill="#FFFFFF" font-family="sans-serif" font-size="13" lengthAdjust="spacing" textLength="52" x="339" y="524.0669">extends</text></g><!--link M1 to M4--><g id="link_M1_M4"><path d="M399.119,450.061 C408.422,484.698 426.3848,551.5807 435.0908,583.9974 " fill="none" id="M1-to-M4" style="stroke:#E7E7E7;stroke-width:1.0;stroke-dasharray:7.0,7.0;"/><polygon fill="#E7E7E7" points="436.647,589.7921,438.1757,580.0626,435.3501,584.9632,430.4495,582.1376,436.647,589.7921" style="stroke:#E7E7E7;stroke-width:1.0;"/><text fill="#FFFFFF" font-family="sans-serif" font-size="13" lengthAdjust="spacing" textLength="52" x="420" y="524.0669">extends</text></g><!--link M1 to M5--><g id="link_M1_M5"><path d="M418.074,449.397 C463.204,483.885 555.0227,554.0521 597.4817,586.4993 " fill="none" id="M1-to-M5" style="stroke:#E7E7E7;stroke-width:1.0;stroke-dasharray:7.0,7.0;"/><polygon fill="#E7E7E7" points="602.249,590.1425,597.5268,581.4995,598.2762,587.1065,592.6692,587.8559,602.249,590.1425" style="stroke:#E7E7E7;stroke-width:1.0;"/><text fill="#FFFFFF" font-family="sans-serif" font-size="13" lengthAdjust="spacing" textLength="52" x="520" y="524.0669">extends</text></g><!--SRC=[TSzDImCn40RWUtx573U7NTX-BYA2j3ruM0IjteViL5BIf4mI4SN_RcmMuWez3iyxaxnCAg1zCmGRF1Ax-nZS2ODM3hw4Y9uKUeBgYT3eJsHuF1EZqivAG0zz-pSIDAV4xf1EwdUN0xCIsDBPUHr6c1VOCrf_82QhD6PT5DquwwC92CzeXd5vMVZ1UkAGtjqZ7ocC-wiII8t8faB8cTQ5NbEfuT861e8j1kSXXpeXNdn4rWxgEwZwbHHLtycwlaojX3IkvMtJD5dX1hHL9gOp4-d-IIj7cFq2VQIl3Nu2yskmk0RB2Np_0000]--></g></svg>